  0
SECTION
  2
HEADER
  9
$LIMMIN
 10
-600.000000
 20
0.000000
  9
$LIMMAX
 10
4100.000000
 20
5840.000000
  9
$EXTMIN
 10
-600.000000
 20
0.000000
  9
$EXTMAX
 10
4100.000000
 20
5840.000000
  9
$ANGBASE
 50
0.000000
  9
$ANGDIR
 70
0
  9
$INSUNITS
 70
4
  9
$DIMALT
 70
4
  9
$DIMLUNIT
 70
2
  9
$DIMASZ
 40
3.000000
  9
$DIMTXT
 40
5.000000
  9
$DIMRND
 40
0.010000
  9
$DIMEXE
 40
2.000000
  9
$DIMEXO
 40
2.000000
  9
$DIMAUNIT
 70
0
  9
$DIMADEC
 70
2
  9
$GRIDUNIT
 10
0.001000
 20
0.001000
  9
$PLIMMIN
 10
0.000000
 20
0.000000
  9
$PLIMMAX
 10
210.000000
 20
297.000000
  9
$PSVPSCALE
 40
0.050000
  0
ENDSEC
  0
SECTION
  2
TABLES
  0
TABLE
  2
LTYPE
 70
     1
  0
LTYPE
  2
CONTINUOUS
 70
    64
  3
Ausgez
 72
    65
 73
  0
 40
0.000000
  0
ENDTAB
  0
TABLE
  2
LAYER
 70
     1
  0
LAYER
  2
Text
 70
    64
 62
0
  6
CONTINUOUS
  0
LAYER
  2
Surround Numbers
 70
    64
 62
0
  6
CONTINUOUS
  0
LAYER
  2
Surround Frame
 70
    64
 62
0
  6
CONTINUOUS
  0
LAYER
  2
Plywood
 70
    64
 62
0
  6
CONTINUOUS
  0
LAYER
  2
Frame
 70
    64
 62
0
  6
CONTINUOUS
  0
ENDTAB
  0
ENDSEC
  0
SECTION
  2
BLOCKS
  0
ENDSEC
  0
SECTION
  2
ENTITIES
  0
LINE
  8
Surround Frame
  6
CONTINUOUS
 10
200.000000
 20
200.000000
 11
4000.000000
 21
200.000000
 39
0
 62
0
  0
LINE
  8
Surround Frame
  6
CONTINUOUS
 10
4000.000000
 20
200.000000
 11
4000.000000
 21
5740.000000
 39
0
 62
0
  0
LINE
  8
Surround Frame
  6
CONTINUOUS
 10
4000.000000
 20
5740.000000
 11
200.000000
 21
5740.000000
 39
0
 62
0
  0
LINE
  8
Surround Frame
  6
CONTINUOUS
 10
200.000000
 20
5740.000000
 11
200.000000
 21
200.000000
 39
0
 62
0
  0
LINE
  8
Surround Numbers
  6
CONTINUOUS
 10
2100.000000
 20
200.000000
 11
2100.000000
 21
100.000000
 39
0
 62
0
  0
LINE
  8
Surround Numbers
  6
CONTINUOUS
 10
1100.000000
 20
100.000000
 11
3100.000000
 21
100.000000
 39
0
 62
0
  0
LINE
  8
Surround Numbers
  6
CONTINUOUS
 10
1100.000000
 20
100.000000
 11
1100.000000
 21
200.000000
 39
0
 62
0
  0
LINE
  8
Surround Numbers
  6
CONTINUOUS
 10
3100.000000
 20
100.000000
 11
3100.000000
 21
200.000000
 39
0
 62
0
  0
LINE
  8
Surround Numbers
  6
CONTINUOUS
 10
1300.000000
 20
100.000000
 11
1300.000000
 21
200.000000
 39
0
 62
0
  0
LINE
  8
Surround Numbers
  6
CONTINUOUS
 10
1500.000000
 20
100.000000
 11
1500.000000
 21
200.000000
 39
0
 62
0
  0
LINE
  8
Surround Numbers
  6
CONTINUOUS
 10
1700.000000
 20
100.000000
 11
1700.000000
 21
200.000000
 39
0
 62
0
  0
LINE
  8
Surround Numbers
  6
CONTINUOUS
 10
1900.000000
 20
100.000000
 11
1900.000000
 21
200.000000
 39
0
 62
0
  0
LINE
  8
Surround Numbers
  6
CONTINUOUS
 10
2300.000000
 20
100.000000
 11
2300.000000
 21
200.000000
 39
0
 62
0
  0
LINE
  8
Surround Numbers
  6
CONTINUOUS
 10
2500.000000
 20
100.000000
 11
2500.000000
 21
200.000000
 39
0
 62
0
  0
LINE
  8
Surround Numbers
  6
CONTINUOUS
 10
2700.000000
 20
100.000000
 11
2700.000000
 21
200.000000
 39
0
 62
0
  0
LINE
  8
Surround Numbers
  6
CONTINUOUS
 10
2900.000000
 20
100.000000
 11
2900.000000
 21
200.000000
 39
0
 62
0
  0
LINE
  8
Surround Numbers
  6
CONTINUOUS
 10
100.000000
 20
2970.000000
 11
300.000000
 21
2970.000000
 39
0
 62
0
  0
LINE
  8
Surround Numbers
  6
CONTINUOUS
 10
3900.000000
 20
2970.000000
 11
4100.000000
 21
2970.000000
 39
0
 62
0
  0
LINE
  8
Surround Numbers
  6
CONTINUOUS
 10
2100.000000
 20
5640.000000
 11
2100.000000
 21
5840.000000
 39
0
 62
0
  0
LINE
  8
Surround Numbers
  6
CONTINUOUS
 10
2100.000000
 20
200.000000
 11
2100.000000
 21
300.000000
 39
0
 62
0
  0
LINE
  8
Surround Numbers
  6
CONTINUOUS
 10
250.000000
 20
3020.000000
 11
250.000000
 21
2920.000000
 39
0
 62
0
  0
LINE
  8
Surround Numbers
  6
CONTINUOUS
 10
250.000000
 20
2920.000000
 11
150.000000
 21
2970.000000
 39
0
 62
0
  0
LINE
  8
Surround Numbers
  6
CONTINUOUS
 10
150.000000
 20
2970.000000
 11
250.000000
 21
3020.000000
 39
0
 62
0
  0
LINE
  8
Surround Numbers
  6
CONTINUOUS
 10
2100.000000
 20
150.000000
 11
2050.000000
 21
250.000000
 39
0
 62
0
  0
LINE
  8
Surround Numbers
  6
CONTINUOUS
 10
2050.000000
 20
250.000000
 11
2150.000000
 21
250.000000
 39
0
 62
0
  0
LINE
  8
Surround Numbers
  6
CONTINUOUS
 10
2150.000000
 20
250.000000
 11
2100.000000
 21
150.000000
 39
0
 62
0
  0
LINE
  8
Surround Numbers
  6
CONTINUOUS
 10
1150.000000
 20
5740.000000
 11
1150.000000
 21
5840.000000
 39
0
 62
0
  0
LINE
  8
Surround Numbers
  6
CONTINUOUS
 10
3050.000000
 20
5740.000000
 11
3050.000000
 21
5840.000000
 39
0
 62
0
  0
TEXT
  8
Surround Numbers
  6
CONTINUOUS
 10
655.000000
 20
5750.000000
 40
80.000000
 50
0.000000
 72
0
  7
Courier#16.000000#48.000000
  1
1
 39
0
 62
0
  0
TEXT
  8
Surround Numbers
  6
CONTINUOUS
 10
1595.613380
 20
5747.992120
 40
80.000000
 50
0.000000
 72
0
  7
Courier#16.000000#48.000000
  1
2
 39
0
 62
0
  0
TEXT
  8
Surround Numbers
  6
CONTINUOUS
 10
2545.343140
 20
5751.656860
 40
80.000000
 50
0.000000
 72
0
  7
Courier#16.000000#48.000000
  1
3
 39
0
 62
0
  0
TEXT
  8
Surround Numbers
  6
CONTINUOUS
 10
3493.000000
 20
5750.000000
 40
80.000000
 50
0.000000
 72
0
  7
Courier#16.000000#48.000000
  1
4
 39
0
 62
0
  0
LINE
  8
Surround Numbers
  6
CONTINUOUS
 10
200.000000
 20
3890.000000
 11
100.000000
 21
3890.000000
 39
0
 62
0
  0
LINE
  8
Surround Numbers
  6
CONTINUOUS
 10
200.000000
 20
4810.000000
 11
100.000000
 21
4810.000000
 39
0
 62
0
  0
LINE
  8
Surround Numbers
  6
CONTINUOUS
 10
200.000000
 20
2050.000000
 11
100.000000
 21
2050.000000
 39
0
 62
0
  0
LINE
  8
Surround Numbers
  6
CONTINUOUS
 10
200.000000
 20
1130.000000
 11
100.000000
 21
1130.000000
 39
0
 62
0
  0
TEXT
  8
Surround Numbers
  6
CONTINUOUS
 10
114.000000
 20
5230.000000
 40
80.000000
 50
0.000000
 72
0
  7
Courier#16.000000#48.000000
  1
A
 39
0
 62
0
  0
TEXT
  8
Surround Numbers
  6
CONTINUOUS
 10
118.000000
 20
4310.000000
 40
80.000000
 50
0.000000
 72
0
  7
Courier#16.000000#48.000000
  1
B
 39
0
 62
0
  0
TEXT
  8
Surround Numbers
  6
CONTINUOUS
 10
123.863960
 20
3390.000000
 40
80.000000
 50
0.000000
 72
0
  7
Courier#16.000000#48.000000
  1
C
 39
0
 62
0
  0
TEXT
  8
Surround Numbers
  6
CONTINUOUS
 10
115.721820
 20
2470.000000
 40
80.000000
 50
0.000000
 72
0
  7
Courier#16.000000#48.000000
  1
D
 39
0
 62
0
  0
TEXT
  8
Surround Numbers
  6
CONTINUOUS
 10
122.000000
 20
1550.000000
 40
80.000000
 50
0.000000
 72
0
  7
Courier#16.000000#48.000000
  1
E
 39
0
 62
0
  0
TEXT
  8
Surround Numbers
  6
CONTINUOUS
 10
122.000000
 20
630.000000
 40
80.000000
 50
0.000000
 72
0
  7
Courier#16.000000#48.000000
  1
F
 39
0
 62
0
  0
TEXT
  8
Surround Numbers
  6
CONTINUOUS
 10
4014.000000
 20
5230.000000
 40
80.000000
 50
0.000000
 72
0
  7
Courier#16.000000#48.000000
  1
A
 39
0
 62
0
  0
LINE
  8
Surround Numbers
  6
CONTINUOUS
 10
4100.000000
 20
4810.000000
 11
4000.000000
 21
4810.000000
 39
0
 62
0
  0
TEXT
  8
Surround Numbers
  6
CONTINUOUS
 10
4018.000000
 20
4310.000000
 40
80.000000
 50
0.000000
 72
0
  7
Courier#16.000000#48.000000
  1
B
 39
0
 62
0
  0
LINE
  8
Surround Numbers
  6
CONTINUOUS
 10
4100.000000
 20
3890.000000
 11
4000.000000
 21
3890.000000
 39
0
 62
0
  0
TEXT
  8
Surround Numbers
  6
CONTINUOUS
 10
4023.863960
 20
3390.000000
 40
80.000000
 50
0.000000
 72
0
  7
Courier#16.000000#48.000000
  1
C
 39
0
 62
0
  0
TEXT
  8
Surround Numbers
  6
CONTINUOUS
 10
4015.721820
 20
2470.000000
 40
80.000000
 50
0.000000
 72
0
  7
Courier#16.000000#48.000000
  1
D
 39
0
 62
0
  0
LINE
  8
Surround Numbers
  6
CONTINUOUS
 10
4100.000000
 20
2050.000000
 11
4000.000000
 21
2050.000000
 39
0
 62
0
  0
TEXT
  8
Surround Numbers
  6
CONTINUOUS
 10
4022.000000
 20
1550.000000
 40
80.000000
 50
0.000000
 72
0
  7
Courier#16.000000#48.000000
  1
E
 39
0
 62
0
  0
LINE
  8
Surround Numbers
  6
CONTINUOUS
 10
4100.000000
 20
1130.000000
 11
4000.000000
 21
1130.000000
 39
0
 62
0
  0
TEXT
  8
Surround Numbers
  6
CONTINUOUS
 10
4022.000000
 20
630.000000
 40
80.000000
 50
0.000000
 72
0
  7
Courier#16.000000#48.000000
  1
F
 39
0
 62
0
  0
LINE
  8
Surround Frame
  6
CONTINUOUS
 10
2100.000000
 20
400.000000
 11
4000.000000
 21
400.000000
 39
0
 62
0
  0
LINE
  8
Surround Frame
  6
CONTINUOUS
 10
600.000000
 20
600.000000
 11
4000.000000
 21
600.000000
 39
0
 62
0
  0
LINE
  8
Surround Frame
  6
CONTINUOUS
 10
600.000000
 20
800.000000
 11
4000.000000
 21
800.000000
 39
0
 62
0
  0
LINE
  8
Surround Frame
  6
CONTINUOUS
 10
600.000000
 20
200.000000
 11
600.000000
 21
800.000000
 39
0
 62
0
  0
LINE
  8
Surround Frame
  6
CONTINUOUS
 10
2100.000000
 20
200.000000
 11
2100.000000
 21
600.000000
 39
0
 62
0
  0
LINE
  8
Surround Frame
  6
CONTINUOUS
 10
3600.000000
 20
200.000000
 11
3600.000000
 21
400.000000
 39
0
 62
0
  0
LINE
  8
Surround Frame
  6
CONTINUOUS
 10
3300.000000
 20
200.000000
 11
3300.000000
 21
400.000000
 39
0
 62
0
  0
LINE
  8
Surround Frame
  6
CONTINUOUS
 10
3600.000000
 20
600.000000
 11
3600.000000
 21
800.000000
 39
0
 62
0
  0
LINE
  8
Surround Frame
  6
CONTINUOUS
 10
3000.000000
 20
600.000000
 11
3000.000000
 21
800.000000
 39
0
 62
0
  0
LINE
  8
Surround Frame
  6
CONTINUOUS
 10
2500.000000
 20
600.000000
 11
2500.000000
 21
800.000000
 39
0
 62
0
  0
LINE
  8
Surround Frame
  6
CONTINUOUS
 10
1740.000000
 20
600.000000
 11
1740.000000
 21
800.000000
 39
0
 62
0
  0
LINE
  8
Surround Frame
  6
CONTINUOUS
 10
1240.000000
 20
600.000000
 11
1240.000000
 21
800.000000
 39
0
 62
0
  0
LINE
  8
Surround Frame
  6
CONTINUOUS
 10
600.000000
 20
920.000000
 11
4000.000000
 21
920.000000
 39
0
 62
0
  0
LINE
  8
Surround Frame
  6
CONTINUOUS
 10
900.000000
 20
800.000000
 11
900.000000
 21
920.000000
 39
0
 62
0
  0
LINE
  8
Surround Frame
  6
CONTINUOUS
 10
600.000000
 20
800.000000
 11
600.000000
 21
920.000000
 39
0
 62
0
  0
LINE
  8
Surround Frame
  6
CONTINUOUS
 10
1240.000000
 20
800.000000
 11
1240.000000
 21
920.000000
 39
0
 62
0
  0
LINE
  8
Surround Frame
  6
CONTINUOUS
 10
3000.000000
 20
800.000000
 11
3000.000000
 21
920.000000
 39
0
 62
0
  0
LINE
  8
Surround Frame
  6
CONTINUOUS
 10
600.000000
 20
5620.000000
 11
600.000000
 21
5740.000000
 39
0
 62
0
  0
LINE
  8
Surround Frame
  6
CONTINUOUS
 10
600.000000
 20
5620.000000
 11
4000.000000
 21
5620.000000
 39
0
 62
0
  0
LINE
  8
Surround Frame
  6
CONTINUOUS
 10
840.000000
 20
5620.000000
 11
840.000000
 21
5740.000000
 39
0
 62
0
  0
LINE
  8
Surround Frame
  6
CONTINUOUS
 10
3020.000000
 20
5620.000000
 11
3020.000000
 21
5740.000000
 39
0
 62
0
  0
LINE
  8
Surround Frame
  6
CONTINUOUS
 10
3420.000000
 20
5620.000000
 11
3420.000000
 21
5740.000000
 39
0
 62
0
  0
LINE
  8
Surround Frame
  6
CONTINUOUS
 10
3720.000000
 20
5620.000000
 11
3720.000000
 21
5740.000000
 39
0
 62
0
  0
TEXT
  8
Surround Numbers
  6
CONTINUOUS
 10
655.000000
 20
110.000000
 40
80.000000
 50
0.000000
 72
0
  7
Courier#16.000000#48.000000
  1
1
 39
0
 62
0
  0
TEXT
  8
Surround Numbers
  6
CONTINUOUS
 10
3493.000000
 20
110.000000
 40
80.000000
 50
0.000000
 72
0
  7
Courier#16.000000#48.000000
  1
4
 39
0
 62
0
  0
TEXT
  8
Text
  6
CONTINUOUS
 10
609.545300
 20
5699.666900
 40
36.000000
 50
0.000000
 72
0
  7
Courier#3.600000#21.600000
  1
RevNo
 39
0
 62
0
  0
TEXT
  8
Text
  6
CONTINUOUS
 10
849.545300
 20
5699.666900
 40
36.000000
 50
0.000000
 72
0
  7
Courier#3.600000#21.600000
  1
Revision note
 39
0
 62
0
  0
TEXT
  8
Text
  6
CONTINUOUS
 10
3735.568940
 20
5701.697200
 40
36.000000
 50
0.000000
 72
0
  7
Courier#3.600000#21.600000
  1
Checked
 39
0
 62
0
  0
TEXT
  8
Text
  6
CONTINUOUS
 10
3421.129020
 20
5701.697200
 40
32.000000
 50
0.000000
 72
0
  7
Courier#3.200000#19.200000
  1
Signature
 39
0
 62
0
  0
TEXT
  8
Text
  6
CONTINUOUS
 10
3027.514980
 20
5701.697200
 40
36.000000
 50
0.000000
 72
0
  7
Courier#3.600000#21.600000
  1
Date
 39
0
 62
0
  0
TEXT
  8
Text
  6
CONTINUOUS
 10
613.769000
 20
876.220160
 40
36.000000
 50
0.000000
 72
0
  7
Courier#3.600000#21.600000
  1
Itemref
 39
0
 62
0
  0
TEXT
  8
Text
  6
CONTINUOUS
 10
913.769000
 20
876.220160
 40
36.000000
 50
0.000000
 72
0
  7
Courier#3.600000#21.600000
  1
Quantity
 39
0
 62
0
  0
TEXT
  8
Text
  6
CONTINUOUS
 10
1253.769000
 20
876.220160
 40
36.000000
 50
0.000000
 72
0
  7
Courier#3.600000#21.600000
  1
Title/Name, designation, material, dimension etc
 39
0
 62
0
  0
TEXT
  8
Text
  6
CONTINUOUS
 10
3013.769000
 20
876.220160
 40
36.000000
 50
0.000000
 72
0
  7
Courier#3.600000#21.600000
  1
Article No./Reference
 39
0
 62
0
  0
TEXT
  8
Text
  6
CONTINUOUS
 10
613.769000
 20
756.220160
 40
36.000000
 50
0.000000
 72
0
  7
Courier#3.600000#21.600000
  1
Designed by
 39
0
 62
0
  0
TEXT
  8
Text
  6
CONTINUOUS
 10
1253.769000
 20
756.220160
 40
36.000000
 50
0.000000
 72
0
  7
Courier#3.600000#21.600000
  1
Checked by
 39
0
 62
0
  0
TEXT
  8
Text
  6
CONTINUOUS
 10
1753.769000
 20
756.220160
 40
36.000000
 50
0.000000
 72
0
  7
Courier#3.600000#21.600000
  1
Approved by - date
 39
0
 62
0
  0
TEXT
  8
Text
  6
CONTINUOUS
 10
2513.769000
 20
756.220160
 40
36.000000
 50
0.000000
 72
0
  7
Courier#3.600000#21.600000
  1
Filename
 39
0
 62
0
  0
TEXT
  8
Text
  6
CONTINUOUS
 10
3013.769000
 20
756.220160
 40
36.000000
 50
0.000000
 72
0
  7
Courier#3.600000#21.600000
  1
Date
 39
0
 62
0
  0
TEXT
  8
Text
  6
CONTINUOUS
 10
3613.769000
 20
756.220160
 40
36.000000
 50
0.000000
 72
0
  7
Courier#3.600000#21.600000
  1
Scale
 39
0
 62
0
  0
TEXT
  8
Text
  6
CONTINUOUS
 10
3313.769000
 20
356.220160
 40
36.000000
 50
0.000000
 72
0
  7
Courier#3.600000#21.600000
  1
Edition
 39
0
 62
0
  0
TEXT
  8
Text
  6
CONTINUOUS
 10
3613.769000
 20
356.220160
 40
36.000000
 50
0.000000
 72
0
  7
Courier#3.600000#21.600000
  1
Sheet
 39
0
 62
0
  0
LINE
  8
Plywood
  6
CONTINUOUS
 10
-300.000000
 20
0.000000
 11
-600.000000
 21
0.000000
 39
0
 62
0
  0
LINE
  8
Plywood
  6
CONTINUOUS
 10
3400.000000
 20
3800.000000
 11
3400.000000
 21
1570.000000
 39
2
 62
0
  0
LINE
  8
Plywood
  6
CONTINUOUS
 10
3400.000000
 20
1570.000000
 11
1000.000000
 21
1570.000000
 39
2
 62
0
  0
LINE
  8
Plywood
  6
CONTINUOUS
 10
1000.000000
 20
1570.000000
 11
1000.000000
 21
2700.000000
 39
2
 62
0
  0
LINE
  8
Plywood
  6
CONTINUOUS
 10
1000.000000
 20
2700.000000
 11
1090.000000
 21
2700.000000
 39
2
 62
0
  0
LINE
  8
Plywood
  6
CONTINUOUS
 10
1090.000000
 20
2700.000000
 11
1090.000000
 21
3800.000000
 39
2
 62
0
  0
LINE
  8
Plywood
  6
CONTINUOUS
 10
1090.000000
 20
3800.000000
 11
3400.000000
 21
3800.000000
 39
2
 62
0
  0
LINE
  8
Frame
  6
CONTINUOUS
 10
3100.000000
 20
3800.000000
 11
3100.000000
 21
1570.000000
 39
0
 62
0
  0
LINE
  8
Frame
  6
CONTINUOUS
 10
3050.000000
 20
1570.000000
 11
3050.000000
 21
3800.000000
 39
0
 62
0
  0
LINE
  8
Frame
  6
CONTINUOUS
 10
3050.000000
 20
3800.000000
 11
3100.000000
 21
3800.000000
 39
0
 62
0
  0
LINE
  8
Frame
  6
CONTINUOUS
 10
3100.000000
 20
1570.000000
 11
3050.000000
 21
1570.000000
 39
0
 62
0
  0
LINE
  8
Plywood
  6
CONTINUOUS
 10
1400.000000
 20
3800.000000
 11
1450.000000
 21
3800.000000
 39
0
 62
0
  0
LINE
  8
Frame
  6
CONTINUOUS
 10
1450.000000
 20
3800.000000
 11
1400.000000
 21
3800.000000
 39
0
 62
0
  0
LINE
  8
Frame
  6
CONTINUOUS
 10
1400.000000
 20
3800.000000
 11
1400.000000
 21
1570.000000
 39
0
 62
0
  0
LINE
  8
Frame
  6
CONTINUOUS
 10
1400.000000
 20
1570.000000
 11
1450.000000
 21
1570.000000
 39
0
 62
0
  0
LINE
  8
Frame
  6
CONTINUOUS
 10
1450.000000
 20
1570.000000
 11
1450.000000
 21
3800.000000
 39
0
 62
0
  0
LINE
  8
Frame
  6
CONTINUOUS
 10
1450.000000
 20
3700.000000
 11
3050.000000
 21
3700.000000
 39
0
 62
0
  0
LINE
  8
Frame
  6
CONTINUOUS
 10
3050.000000
 20
3700.000000
 11
3050.000000
 21
3650.000000
 39
0
 62
0
  0
LINE
  8
Frame
  6
CONTINUOUS
 10
3050.000000
 20
3650.000000
 11
1450.000000
 21
3650.000000
 39
0
 62
0
  0
LINE
  8
Frame
  6
CONTINUOUS
 10
1450.000000
 20
3650.000000
 11
1450.000000
 21
3700.000000
 39
0
 62
0
  0
LINE
  8
Frame
  6
CONTINUOUS
 10
1450.000000
 20
1700.000000
 11
3050.000000
 21
1700.000000
 39
0
 62
0
  0
LINE
  8
Frame
  6
CONTINUOUS
 10
3050.000000
 20
1700.000000
 11
3050.000000
 21
1750.000000
 39
0
 62
0
  0
LINE
  8
Frame
  6
CONTINUOUS
 10
3050.000000
 20
1750.000000
 11
1450.000000
 21
1750.000000
 39
0
 62
0
  0
LINE
  8
Frame
  6
CONTINUOUS
 10
1450.000000
 20
1750.000000
 11
1450.000000
 21
1700.000000
 39
0
 62
0
  0
LINE
  8
Plywood
  6
CONTINUOUS
 10
3400.000000
 20
2600.000000
 11
1000.000000
 21
2600.000000
 39
2
 62
0
  0
LINE
  8
Plywood
  6
CONTINUOUS
 10
1000.000000
 20
1570.000000
 11
3400.000000
 21
1570.000000
 39
2
 62
0
  0
LINE
  8
Plywood
  6
CONTINUOUS
 10
3400.000000
 20
1570.000000
 11
3400.000000
 21
1400.000000
 39
2
 62
0
  0
LINE
  8
Plywood
  6
CONTINUOUS
 10
3400.000000
 20
1400.000000
 11
1000.000000
 21
1400.000000
 39
2
 62
0
  0
LINE
  8
Plywood
  6
CONTINUOUS
 10
1000.000000
 20
1400.000000
 11
1000.000000
 21
1570.000000
 39
2
 62
0
  0
LINE
  8
Frame
  6
CONTINUOUS
 10
1450.000000
 20
2700.000000
 11
3050.000000
 21
2700.000000
 39
0
 62
0
  0
LINE
  8
Frame
  6
CONTINUOUS
 10
3050.000000
 20
2700.000000
 11
3050.000000
 21
2750.000000
 39
0
 62
0
  0
LINE
  8
Frame
  6
CONTINUOUS
 10
3050.000000
 20
2750.000000
 11
1450.000000
 21
2750.000000
 39
0
 62
0
  0
LINE
  8
Frame
  6
CONTINUOUS
 10
1450.000000
 20
2750.000000
 11
1450.000000
 21
2700.000000
 39
0
 62
0
  0
LINE
  8
Frame
  6
CONTINUOUS
 10
1450.000000
 20
2500.000000
 11
1450.000000
 21
2450.000000
 39
0
 62
0
  0
LINE
  8
Frame
  6
CONTINUOUS
 10
1450.000000
 20
2450.000000
 11
3050.000000
 21
2450.000000
 39
0
 62
0
  0
LINE
  8
Frame
  6
CONTINUOUS
 10
3050.000000
 20
2450.000000
 11
3050.000000
 21
2500.000000
 39
0
 62
0
  0
LINE
  8
Frame
  6
CONTINUOUS
 10
3050.000000
 20
2500.000000
 11
1450.000000
 21
2500.000000
 39
0
 62
0
  0
LINE
  8
Frame
  6
CONTINUOUS
 10
2225.000000
 20
2500.000000
 11
2275.000000
 21
2500.000000
 39
0
 62
0
  0
LINE
  8
Frame
  6
CONTINUOUS
 10
2275.000000
 20
1750.000000
 11
2225.000000
 21
1750.000000
 39
0
 62
0
  0
LINE
  8
Frame
  6
CONTINUOUS
 10
2225.000000
 20
1750.000000
 11
2225.000000
 21
2450.000000
 39
0
 62
0
  0
LINE
  8
Frame
  6
CONTINUOUS
 10
2225.000000
 20
2450.000000
 11
2275.000000
 21
2450.000000
 39
0
 62
0
  0
LINE
  8
Frame
  6
CONTINUOUS
 10
2275.000000
 20
2450.000000
 11
2275.000000
 21
1750.000000
 39
0
 62
0
  0
LINE
  8
Frame
  6
CONTINUOUS
 10
2225.000000
 20
2750.000000
 11
2275.000000
 21
2750.000000
 39
0
 62
0
  0
LINE
  8
Frame
  6
CONTINUOUS
 10
2275.000000
 20
2750.000000
 11
2275.000000
 21
3650.000000
 39
0
 62
0
  0
LINE
  8
Frame
  6
CONTINUOUS
 10
2275.000000
 20
3650.000000
 11
2225.000000
 21
3650.000000
 39
0
 62
0
  0
LINE
  8
Frame
  6
CONTINUOUS
 10
2225.000000
 20
3650.000000
 11
2225.000000
 21
2750.000000
 39
0
 62
0
  0
LINE
  8
Frame
  6
CONTINUOUS
 10
1400.000000
 20
2500.000000
 11
1100.000000
 21
2500.000000
 39
0
 62
0
  0
LINE
  8
Frame
  6
CONTINUOUS
 10
1100.000000
 20
2500.000000
 11
1100.000000
 21
2450.000000
 39
0
 62
0
  0
LINE
  8
Frame
  6
CONTINUOUS
 10
1100.000000
 20
2450.000000
 11
1400.000000
 21
2450.000000
 39
0
 62
0
  0
LINE
  8
Frame
  6
CONTINUOUS
 10
1400.000000
 20
1750.000000
 11
1100.000000
 21
1750.000000
 39
0
 62
0
  0
LINE
  8
Frame
  6
CONTINUOUS
 10
1100.000000
 20
1750.000000
 11
1100.000000
 21
1700.000000
 39
0
 62
0
  0
LINE
  8
Frame
  6
CONTINUOUS
 10
1100.000000
 20
1700.000000
 11
1400.000000
 21
1700.000000
 39
0
 62
0
  0
LINE
  8
Frame
  6
CONTINUOUS
 10
1400.000000
 20
1400.000000
 11
1450.000000
 21
1400.000000
 39
0
 62
0
  0
LINE
  8
Frame
  6
CONTINUOUS
 10
1450.000000
 20
1400.000000
 11
1450.000000
 21
1570.000000
 39
0
 62
0
  0
LINE
  8
Frame
  6
CONTINUOUS
 10
1450.000000
 20
1570.000000
 11
1400.000000
 21
1570.000000
 39
0
 62
0
  0
LINE
  8
Frame
  6
CONTINUOUS
 10
1400.000000
 20
1570.000000
 11
1400.000000
 21
1400.000000
 39
0
 62
0
  0
LINE
  8
Frame
  6
CONTINUOUS
 10
3050.000000
 20
1400.000000
 11
3100.000000
 21
1400.000000
 39
0
 62
0
  0
LINE
  8
Frame
  6
CONTINUOUS
 10
3100.000000
 20
1400.000000
 11
3100.000000
 21
1570.000000
 39
0
 62
0
  0
LINE
  8
Frame
  6
CONTINUOUS
 10
3100.000000
 20
1570.000000
 11
3050.000000
 21
1570.000000
 39
0
 62
0
  0
LINE
  8
Frame
  6
CONTINUOUS
 10
3050.000000
 20
1570.000000
 11
3050.000000
 21
1400.000000
 39
0
 62
0
  0
LINE
  8
Frame
  6
CONTINUOUS
 10
1200.000000
 20
1400.000000
 11
1250.000000
 21
1400.000000
 39
0
 62
0
  0
LINE
  8
Frame
  6
CONTINUOUS
 10
1250.000000
 20
1400.000000
 11
1250.000000
 21
1570.000000
 39
0
 62
0
  0
LINE
  8
Frame
  6
CONTINUOUS
 10
1250.000000
 20
1570.000000
 11
1200.000000
 21
1570.000000
 39
0
 62
0
  0
LINE
  8
Frame
  6
CONTINUOUS
 10
1200.000000
 20
1570.000000
 11
1200.000000
 21
1400.000000
 39
0
 62
0
  0
LINE
  8
Frame
  6
CONTINUOUS
 10
2650.000000
 20
1400.000000
 11
2700.000000
 21
1400.000000
 39
0
 62
0
  0
LINE
  8
Frame
  6
CONTINUOUS
 10
2700.000000
 20
1400.000000
 11
2700.000000
 21
1570.000000
 39
0
 62
0
  0
LINE
  8
Frame
  6
CONTINUOUS
 10
2700.000000
 20
1570.000000
 11
2650.000000
 21
1570.000000
 39
0
 62
0
  0
LINE
  8
Frame
  6
CONTINUOUS
 10
2650.000000
 20
1570.000000
 11
2650.000000
 21
1400.000000
 39
0
 62
0
  0
LINE
  8
Frame
  6
CONTINUOUS
 10
1800.000000
 20
1400.000000
 11
1850.000000
 21
1400.000000
 39
0
 62
0
  0
LINE
  8
Frame
  6
CONTINUOUS
 10
1850.000000
 20
1400.000000
 11
1850.000000
 21
1570.000000
 39
0
 62
0
  0
LINE
  8
Frame
  6
CONTINUOUS
 10
1850.000000
 20
1570.000000
 11
1800.000000
 21
1570.000000
 39
0
 62
0
  0
LINE
  8
Frame
  6
CONTINUOUS
 10
1800.000000
 20
1570.000000
 11
1800.000000
 21
1400.000000
 39
0
 62
0
  0
LINE
  8
Frame
  6
CONTINUOUS
 10
2225.000000
 20
1400.000000
 11
2275.000000
 21
1400.000000
 39
0
 62
0
  0
LINE
  8
Frame
  6
CONTINUOUS
 10
2275.000000
 20
1400.000000
 11
2275.000000
 21
1570.000000
 39
0
 62
0
  0
LINE
  8
Frame
  6
CONTINUOUS
 10
2275.000000
 20
1570.000000
 11
2225.000000
 21
1570.000000
 39
0
 62
0
  0
LINE
  8
Frame
  6
CONTINUOUS
 10
2225.000000
 20
1570.000000
 11
2225.000000
 21
1400.000000
 39
0
 62
0
  0
LINE
  8
Plywood
  6
CONTINUOUS
 10
3400.000000
 20
3800.000000
 11
3400.000000
 21
4400.000000
 39
2
 62
0
  0
LINE
  8
Plywood
  6
CONTINUOUS
 10
3400.000000
 20
4400.000000
 11
1090.000000
 21
4400.000000
 39
2
 62
0
  0
LINE
  8
Plywood
  6
CONTINUOUS
 10
1090.000000
 20
4400.000000
 11
1090.000000
 21
3800.000000
 39
2
 62
0
  0
LINE
  8
Plywood
  6
CONTINUOUS
 10
1090.000000
 20
3800.000000
 11
3400.000000
 21
3800.000000
 39
2
 62
0
  0
LINE
  8
Frame
  6
CONTINUOUS
 10
1400.000000
 20
3800.000000
 11
1450.000000
 21
3800.000000
 39
0
 62
0
  0
LINE
  8
Frame
  6
CONTINUOUS
 10
1450.000000
 20
3800.000000
 11
1450.000000
 21
4400.000000
 39
0
 62
0
  0
LINE
  8
Frame
  6
CONTINUOUS
 10
1450.000000
 20
4400.000000
 11
1400.000000
 21
4400.000000
 39
0
 62
0
  0
LINE
  8
Frame
  6
CONTINUOUS
 10
1400.000000
 20
4400.000000
 11
1400.000000
 21
3800.000000
 39
0
 62
0
  0
LINE
  8
Frame
  6
CONTINUOUS
 10
3050.000000
 20
3800.000000
 11
3050.000000
 21
4400.000000
 39
0
 62
0
  0
LINE
  8
Frame
  6
CONTINUOUS
 10
3050.000000
 20
4400.000000
 11
3100.000000
 21
4400.000000
 39
0
 62
0
  0
LINE
  8
Frame
  6
CONTINUOUS
 10
3100.000000
 20
4400.000000
 11
3100.000000
 21
3800.000000
 39
0
 62
0
  0
LINE
  8
Frame
  6
CONTINUOUS
 10
1450.000000
 20
4300.000000
 11
3050.000000
 21
4300.000000
 39
0
 62
0
  0
LINE
  8
Frame
  6
CONTINUOUS
 10
3050.000000
 20
4300.000000
 11
3050.000000
 21
4250.000000
 39
0
 62
0
  0
LINE
  8
Frame
  6
CONTINUOUS
 10
3050.000000
 20
4250.000000
 11
1450.000000
 21
4250.000000
 39
0
 62
0
  0
LINE
  8
Frame
  6
CONTINUOUS
 10
1450.000000
 20
4250.000000
 11
1450.000000
 21
4300.000000
 39
0
 62
0
  0
LINE
  8
Frame
  6
CONTINUOUS
 10
1450.000000
 20
3950.000000
 11
1450.000000
 21
3900.000000
 39
0
 62
0
  0
LINE
  8
Frame
  6
CONTINUOUS
 10
1450.000000
 20
3900.000000
 11
3050.000000
 21
3900.000000
 39
0
 62
0
  0
LINE
  8
Frame
  6
CONTINUOUS
 10
3050.000000
 20
3900.000000
 11
3050.000000
 21
3950.000000
 39
0
 62
0
  0
LINE
  8
Frame
  6
CONTINUOUS
 10
3050.000000
 20
3950.000000
 11
1450.000000
 21
3950.000000
 39
0
 62
0
  0
DIMENSION
  8
Text
  6
CONTINUOUS
  1
;;
 10
1400.000000
 20
4500.000000
 13
1400.000000
 23
4400.000000
 14
1090.000000
 24
4400.000000
 70
1
 39
0
 62
0
  0
DIMENSION
  8
Text
  6
CONTINUOUS
  1
;;
 10
1450.000000
 20
4500.000000
 13
1450.000000
 23
4400.000000
 14
3050.000000
 24
4400.000000
 70
1
 39
0
 62
0
  0
DIMENSION
  8
Text
  6
CONTINUOUS
  1
;;
 10
3100.000000
 20
4500.000000
 13
3100.000000
 23
4400.000000
 14
3400.000000
 24
4400.000000
 70
1
 39
0
 62
0
  0
LINE
  8
Frame
  6
CONTINUOUS
 10
1100.000000
 20
2450.000000
 11
1100.000000
 21
1750.000000
 39
0
 62
0
  0
LINE
  8
Frame
  6
CONTINUOUS
 10
1100.000000
 20
1750.000000
 11
1150.000000
 21
1750.000000
 39
0
 62
0
  0
LINE
  8
Frame
  6
CONTINUOUS
 10
1150.000000
 20
1750.000000
 11
1150.000000
 21
2450.000000
 39
0
 62
0
  0
LINE
  8
Frame
  6
CONTINUOUS
 10
1150.000000
 20
2450.000000
 11
1100.000000
 21
2450.000000
 39
0
 62
0
  0
DIMENSION
  8
Text
  6
CONTINUOUS
  1
;;
 10
3600.000000
 20
4400.000000
 13
3400.000000
 23
4400.000000
 14
3400.000000
 24
4300.000000
 50
90.000000
 70
0
 39
0
 62
0
  0
DIMENSION
  8
Text
  6
CONTINUOUS
  1
;;
 10
3600.000000
 20
4250.000000
 13
3400.000000
 23
4250.000000
 14
3400.000000
 24
3950.000000
 50
90.000000
 70
0
 39
0
 62
0
  0
DIMENSION
  8
Text
  6
CONTINUOUS
  1
;;
 10
3800.000000
 20
3900.000000
 13
3400.000000
 23
3900.000000
 14
3400.000000
 24
3800.000000
 50
90.000000
 70
0
 39
0
 62
0
  0
DIMENSION
  8
Text
  6
CONTINUOUS
  1
;;
 10
3800.000000
 20
3700.000000
 13
3400.000000
 23
3700.000000
 14
3400.000000
 24
3800.000000
 50
90.000000
 70
0
 39
0
 62
0
  0
DIMENSION
  8
Text
  6
CONTINUOUS
  1
;;
 10
3600.000000
 20
3650.000000
 13
3400.000000
 23
3650.000000
 14
3400.000000
 24
2750.000000
 50
90.000000
 70
0
 39
0
 62
0
  0
DIMENSION
  8
Text
  6
CONTINUOUS
  1
;;
 10
3800.000000
 20
2700.000000
 13
3400.000000
 23
2700.000000
 14
3400.000000
 24
2600.000000
 50
90.000000
 70
0
 39
0
 62
0
  0
DIMENSION
  8
Text
  6
CONTINUOUS
  1
;;
 10
3800.000000
 20
2500.000000
 13
3400.000000
 23
2500.000000
 14
3400.000000
 24
2600.000000
 50
90.000000
 70
0
 39
0
 62
0
  0
DIMENSION
  8
Text
  6
CONTINUOUS
  1
;;
 10
3600.000000
 20
2450.000000
 13
3400.000000
 23
2450.000000
 14
3400.000000
 24
1750.000000
 50
90.000000
 70
0
 39
0
 62
0
  0
DIMENSION
  8
Text
  6
CONTINUOUS
  1
;;
 10
3800.000000
 20
1700.000000
 13
3400.000000
 23
1700.000000
 14
3400.000000
 24
1570.000000
 50
90.000000
 70
0
 39
0
 62
0
  0
ENDSEC
  0
EOF
