<svg height="24px" width="24px" viewBox="0 0 250 250" xmlns="http://www.w3.org/2000/svg">
  <path
     d="m 100.9995,134.8925 v -69.784 l 61.334,34.893 z m 136.43,-91.742 c -2.699,-10.162 -10.651,-18.165 -20.747,-20.881 -18.3,-4.936 -91.683,-4.936 -91.683,-4.936 0,0 -73.382,0 -91.682,4.936 -10.096,2.716 -18.048,10.719 -20.747,20.881 -4.904,18.419 -4.904,56.85 -4.904,56.85 0,0 0,38.429 4.904,56.849 2.699,10.163 10.65,18.165 20.747,20.883 18.3,4.934 91.682,4.934 91.682,4.934 0,0 73.383,0 91.683,-4.934 10.096,-2.718 18.048,-10.72 20.747,-20.883 4.904,-18.42 4.904,-56.85 4.904,-56.85 0,0 0,-38.43 -4.904,-56.849" fill="#ffffff"/>
</svg>
